<?xml version="1.0" encoding="UTF-8" standalone="no"?>
<!-- Created with Inkscape (http://www.inkscape.org/) -->

<svg
   version="1.1"
   id="svg1"
   width="334.88293"
   height="334.34653"
   viewBox="0 0 334.88294 334.34653"
   sodipodi:docname="add.svg"
   inkscape:version="1.3.2 (091e20ef0f, 2023-11-25)"
   xmlns:inkscape="http://www.inkscape.org/namespaces/inkscape"
   xmlns:sodipodi="http://sodipodi.sourceforge.net/DTD/sodipodi-0.dtd"
   xmlns="http://www.w3.org/2000/svg"
   xmlns:svg="http://www.w3.org/2000/svg">
  <defs
     id="defs1" />
  <sodipodi:namedview
     id="namedview1"
     pagecolor="#ffffff"
     bordercolor="#000000"
     borderopacity="0.25"
     inkscape:showpageshadow="2"
     inkscape:pageopacity="0.0"
     inkscape:pagecheckerboard="0"
     inkscape:deskcolor="#d1d1d1"
     inkscape:zoom="0.37359686"
     inkscape:cx="954.23715"
     inkscape:cy="88.330508"
     inkscape:window-width="1920"
     inkscape:window-height="964"
     inkscape:window-x="0"
     inkscape:window-y="0"
     inkscape:window-maximized="1"
     inkscape:current-layer="g1" />
  <g
     inkscape:groupmode="layer"
     inkscape:label="Image"
     id="g1"
     transform="translate(880.7886,-313.75037)">
    <path
       style="fill:#050000;stroke-width:3.152;fill-opacity:1"
       d="m -723.07468,470.84412 c 0,0 0,-24.47571 0,-39.34617 0,-2.80569 2.71822,-5.36465 5.24587,-6.5824 2.97358,-1.43258 6.95956,-1.49544 9.90202,0 2.59342,1.31805 5.14439,4.1409 5.14439,7.05003 0,13.10244 0,38.9131 0,38.9131 0,0 23.40604,0 39.17187,0 2.77348,0 5.32673,2.65126 6.53804,5.14624 1.52343,3.13787 1.57421,7.35168 0,10.46438 -1.26736,2.50596 -3.97751,4.99283 -6.78572,4.99283 -15.95287,0 -39.13167,0 -39.13167,0 0,0 0,27.02476 0,39.158 0,2.89267 -2.47078,5.73864 -5.04273,7.06251 -3.15726,1.62514 -7.49741,1.62856 -10.65291,0 -2.41106,-1.24435 -4.71557,-3.92138 -4.71557,-6.63462 0,-13.88006 0,-39.71291 0,-39.71291 0,0 -21.51744,0.12858 -41.01072,0.12858 -2.66408,0 -4.94049,-2.80081 -6.04932,-5.22316 -1.48831,-3.25138 -1.78791,-7.63072 0,-10.72748 1.51121,-2.61749 4.83005,-4.53362 7.85246,-4.53362 13.80816,0 39.53399,-0.15531 39.53399,-0.15531 z"
       id="path1"
       sodipodi:nodetypes="csssscsssscsssscssssc" />
    <path
       style="fill:#050000;stroke-width:3.152;fill-opacity:1"
       d="m -808.37432,346.2781 c 0.19086,-2.05707 1.21397,-4.10239 2.61852,-5.61738 3.86919,-4.17338 9.81922,-5.76887 14.88529,-8.36169 4.77649,-2.44461 9.6168,-4.79073 14.60298,-6.7729 4.90034,-1.94804 9.7892,-4.23375 15.00455,-5.01371 2.88484,-0.43143 6.1481,-1.09886 8.7479,0.22382 2.17355,1.10582 3.81412,3.44914 4.45727,5.80149 0.95443,3.49087 0.74215,7.79911 -1.31416,10.77714 -1.96625,2.8476 -6.01576,3.4514 -9.19145,4.82617 -4.68779,2.02935 -9.42246,3.05591 -14.09049,5.13031 -4.00587,1.78015 -7.55194,3.99217 -11.32474,6.22418 -2.65541,1.57096 -6.18176,3.549 -9.14556,4.40638 -4.12327,1.1928 -8.07855,1.9746 -11.46668,-0.66069 -3.29945,-2.56632 -4.16959,-6.801 -3.78343,-10.96312 z"
       id="path2"
       sodipodi:nodetypes="ssssssssssssss" />
    <path
       style="fill:#050000;stroke-width:3.152;fill-opacity:1"
       d="m -869.84451,430.38095 c -1.07199,-1.766 -1.46849,-4.01831 -1.2427,-6.07183 0.62199,-5.65693 4.45095,-10.48266 6.9758,-15.58293 2.38053,-4.80875 4.87099,-9.57639 7.69541,-14.13859 2.7758,-4.48366 5.34124,-9.2317 9.06584,-12.96474 2.06024,-2.06491 4.28387,-4.54479 7.15999,-5.03094 2.40458,-0.40644 5.11816,0.4986 7.03595,2.00501 2.84598,2.2355 5.24169,5.8225 5.36386,9.43943 0.11681,3.45852 -2.77627,6.35562 -4.50824,9.3515 -2.55663,4.42236 -5.74824,8.06715 -8.26217,12.51393 -2.15732,3.81601 -3.68808,7.70502 -5.38904,11.74514 -1.19719,2.84356 -2.85148,6.53289 -4.72141,8.98696 -2.60148,3.41415 -5.31285,6.39811 -9.60405,6.29949 -4.1789,-0.0961 -7.40023,-2.97921 -9.56924,-6.55243 z"
       id="path2-3"
       sodipodi:nodetypes="ssssssssssssss" />
    <path
       style="fill:#050000;stroke-width:3.152;fill-opacity:1"
       d="m -869.26501,534.31495 c -1.9166,-0.7711 -3.58397,-2.33634 -4.63406,-4.11545 -2.89274,-4.901 -2.72022,-11.05882 -3.75614,-16.65476 -0.97671,-5.27608 -1.84079,-10.58514 -2.31441,-15.92993 -0.46546,-5.25276 -1.25777,-10.59108 -0.51385,-15.8117 0.4115,-2.88775 0.70505,-6.2056 2.71591,-8.31863 1.68118,-1.76659 4.39577,-2.66858 6.8338,-2.61223 3.61803,0.0836 7.68568,1.51897 9.95137,4.34098 2.16646,2.69842 1.58709,6.7515 1.99637,10.1877 0.60416,5.07234 0.23398,9.90285 0.88696,14.96914 0.56036,4.34764 1.66602,8.37817 2.72601,12.63167 0.74605,2.99374 1.63314,6.93847 1.60723,10.02367 -0.036,4.29218 -0.41789,8.30587 -3.91196,10.79897 -3.40267,2.42781 -7.70931,2.05077 -11.58723,0.49057 z"
       id="path3"
       sodipodi:nodetypes="ssssssssssssss" />
    <path
       style="fill:#050000;stroke-width:3.152;fill-opacity:1"
       d="m -706.94891,334.22617 c -2.26959,-1.13565 -4.66177,-2.87871 -5.48635,-5.27887 -1.1955,-3.47983 -0.61739,-7.96827 1.57131,-10.92597 1.6876,-2.28054 4.92074,-3.06302 7.70232,-3.6213 7.11258,-1.42753 14.58285,-0.22381 21.74282,0.94298 9.833,1.60239 19.58103,4.30008 28.7263,8.25223 15.4327,6.66929 30.03526,15.51104 43.36081,25.76176 9.73221,7.48654 18.59388,16.23029 26.30774,25.78332 8.63882,10.69853 16.01475,22.51373 22.0212,34.88346 5.79376,11.93171 10.7653,24.4828 13.30696,37.50099 2.20629,11.30046 1.89212,22.99857 1.54157,34.50705 -0.42631,13.99581 -0.97523,28.20257 -4.42541,41.77316 -3.05511,12.01664 -8.53678,23.35205 -14.2238,34.36982 -4.48425,8.68757 -9.65058,17.07835 -15.59481,24.84034 -6.09635,7.96063 -12.9508,15.39933 -20.42636,22.08164 -9.30596,8.31848 -19.32009,16.00411 -30.15678,22.19797 -8.60972,4.92101 -17.93226,8.60547 -27.35594,11.69382 -10.78412,3.5342 -21.88202,6.42153 -33.15335,7.74251 -14.00898,1.64183 -28.32024,1.93023 -42.31425,0.16534 -15.27153,-1.92601 -30.42967,-5.83693 -44.68641,-11.63991 -12.35668,-5.02959 -23.96223,-12.00151 -34.76681,-19.82745 -9.77962,-7.08354 -21.6429,-13.41584 -26.86354,-24.30448 -1.60765,-3.35307 -1.78976,-7.59507 -0.65545,-11.13639 0.75616,-2.3607 2.44816,-4.68679 4.66884,-5.78826 2.74642,-1.36224 6.34173,-1.39106 9.19325,-0.26532 6.20106,2.44809 9.11399,9.77543 14.20648,14.07807 10.08291,8.51904 20.56574,16.80487 32.179,23.07952 11.10943,6.00243 23.08603,10.59243 35.33828,13.64709 7.56101,1.88507 15.42279,2.48734 23.20891,2.8015 10.59495,0.42749 21.32977,0.5066 31.78593,-1.25535 12.95145,-2.18243 25.74028,-6.02003 37.70684,-11.4334 10.59396,-4.79244 20.59819,-11.08054 29.64217,-18.38847 11.63526,-9.4018 22.3475,-20.21342 31.13701,-32.31786 7.07231,-9.7396 12.7654,-20.59482 16.97236,-31.87219 4.40732,-11.81448 7.14817,-24.33335 8.43227,-36.87757 1.24004,-12.11378 1.07039,-24.48445 -0.7587,-36.52338 -1.07642,-7.08491 -3.6125,-13.88504 -5.95751,-20.65672 -3.42753,-9.89768 -6.63263,-20.01709 -11.82909,-29.11153 -6.19533,-10.84258 -14.00516,-20.84776 -22.74004,-29.77221 -9.06603,-9.26278 -19.26414,-17.60641 -30.38714,-24.26004 -11.26819,-6.74048 -23.60561,-11.83233 -36.2133,-15.50005 -10.62317,-3.09041 -22.86327,-0.39511 -32.75733,-5.34585 z"
       id="path4"
       sodipodi:nodetypes="ssssssssssssssssssssssssssssssssssssssssss" />
  </g>
</svg>
