<?xml version="1.0" encoding="UTF-8" standalone="no"?>
<!-- Created with Inkscape (http://www.inkscape.org/) -->

<svg
   version="1.1"
   id="svg1"
   width="508.65265"
   height="452.78085"
   viewBox="0 0 508.65265 452.78085"
   sodipodi:docname="orange_heart_fill.svg"
   inkscape:version="1.3.2 (091e20ef0f, 2023-11-25)"
   xml:space="preserve"
   xmlns:inkscape="http://www.inkscape.org/namespaces/inkscape"
   xmlns:sodipodi="http://sodipodi.sourceforge.net/DTD/sodipodi-0.dtd"
   xmlns="http://www.w3.org/2000/svg"
   xmlns:svg="http://www.w3.org/2000/svg"><defs
     id="defs1" /><sodipodi:namedview
     id="namedview1"
     pagecolor="#ffffff"
     bordercolor="#000000"
     borderopacity="0.25"
     inkscape:showpageshadow="2"
     inkscape:pageopacity="0.0"
     inkscape:pagecheckerboard="0"
     inkscape:deskcolor="#d1d1d1"
     inkscape:zoom="0.49071073"
     inkscape:cx="-255.75149"
     inkscape:cy="511.50298"
     inkscape:window-width="1920"
     inkscape:window-height="964"
     inkscape:window-x="0"
     inkscape:window-y="0"
     inkscape:window-maximized="1"
     inkscape:current-layer="g1" /><g
     inkscape:groupmode="layer"
     inkscape:label="Image"
     id="g1"
     transform="translate(-812.9366,406.50941)"><path
       style="fill:#f16a26;fill-opacity:1;stroke-width:4.54198"
       d="m 1058.3025,44.4424 c -4.1606,-1.50821 -12.4226,-7.61807 -25.0484,-18.52376 -2.1129,-1.82504 -5.3551,-4.558156 -7.2049,-6.073576 -3.9128,-3.2055 -23.1951,-19.93931 -24.2576,-21.05148 -0.3962,-0.41483 -4.61111,-3.98198 -9.36636,-7.92702 -4.75525,-3.94503 -8.97013,-7.51365 -9.3664,-7.93027 -0.63542,-0.66806 -15.87579,-13.77789 -28.09921,-24.17107 -28.58268,-24.30292 -69.16013,-62.900594 -84.38024,-80.263334 -30.67494,-34.99324 -48.12034,-67.06 -55.48344,-101.98528 -2.8875,-13.69626 -2.87706,-48.40533 0.019,-63.30632 10.43035,-53.66606 46.24765,-96.78945 93.73312,-112.85297 27.51839,-9.309 63.09055,-9.13949 89.34107,0.42573 21.96376,8.00322 45.86366,26.16595 63.95436,48.60222 l 4.6476,5.76394 4.5953,-5.76394 c 19.0702,-23.91974 42.3348,-41.17113 66.5783,-49.36973 15.436,-5.22011 22.7501,-6.34416 41.322,-6.35045 30.3052,-0.0103 49.6295,5.36688 74.6773,20.77962 18.1444,11.16485 39.3153,34.90478 49.7926,55.83485 6.5989,13.18232 6.9489,14.04968 10.7578,26.65822 12.6853,41.99234 8.2212,86.4225 -12.6614,126.01647 -5.6513,10.71491 -18.2726,31.20468 -20.4582,33.21237 -0.4314,0.39627 -4.6254,5.58382 -9.32,11.52788 -9.504,12.03349 -48.6174,51.5917 -66.316,67.070194 -6.303,5.51238 -14.7328,12.98148 -18.7328,16.598 -5.8952,5.32999 -33.4287,28.99792 -51.2164,44.0259 -1.9849,1.6769 -9.1206,7.84005 -15.8572,13.6959 -6.7366,5.85583 -16.7875,14.534706 -22.3353,19.286356 -5.5478,4.75166 -11.3113,9.74374 -12.8078,11.09351 -3.1811,2.86926 -14.4828,6.96082 -18.7903,6.80264 -1.642,-0.0603 -5.1145,-0.88136 -7.7166,-1.8246 z m 47.8189,-59.324356 c -293.1848,-391.627454 -293.1848,-391.627454 0,0 z"
       id="path2-6"
       sodipodi:nodetypes="ssssssssscssscssssssssssssssssssss" /></g></svg>
