<?xml version="1.0" encoding="UTF-8" standalone="no"?>
<!-- Created with Inkscape (http://www.inkscape.org/) -->

<svg
   version="1.1"
   id="svg1"
   width="507.6976"
   height="508.92136"
   viewBox="0 0 507.6976 508.92135"
   sodipodi:docname="orange_click.svg"
   inkscape:version="1.3.2 (091e20ef0f, 2023-11-25)"
   xml:space="preserve"
   xmlns:inkscape="http://www.inkscape.org/namespaces/inkscape"
   xmlns:sodipodi="http://sodipodi.sourceforge.net/DTD/sodipodi-0.dtd"
   xmlns="http://www.w3.org/2000/svg"
   xmlns:svg="http://www.w3.org/2000/svg"><defs
     id="defs1" /><sodipodi:namedview
     id="namedview1"
     pagecolor="#ffffff"
     bordercolor="#000000"
     borderopacity="0.25"
     inkscape:showpageshadow="2"
     inkscape:pageopacity="0.0"
     inkscape:pagecheckerboard="0"
     inkscape:deskcolor="#d1d1d1"
     inkscape:zoom="0.69396977"
     inkscape:cx="-156.34687"
     inkscape:cy="190.21001"
     inkscape:window-width="1920"
     inkscape:window-height="964"
     inkscape:window-x="0"
     inkscape:window-y="0"
     inkscape:window-maximized="1"
     inkscape:current-layer="g1" /><g
     inkscape:groupmode="layer"
     inkscape:label="Image"
     id="g1"
     transform="translate(-434.10255,-178.52725)"><path
       style="fill:#f16a26;fill-opacity:1;stroke-width:4.54198"
       d="m 678.70392,839.89956 c -6.54347,-4.64253 -32.38084,-23.68631 -34.58825,-25.49372 -1.19135,-0.97548 -9.94533,-7.58104 -19.4533,-14.67904 -22.83278,-17.04537 -22.13485,-16.49235 -28.40299,-22.50613 l -5.45555,-5.23417 v -66.67906 -66.67907 l 3.47202,-4.55204 c 2.12158,-2.78154 5.79971,-5.24944 9.45661,-6.34508 5.33954,-1.59976 6.65939,-1.46638 12.24486,1.23751 10.93295,5.29254 10.85114,4.76695 10.85114,69.71578 0,54.76491 0.1091,57.06906 2.7696,58.49292 1.52329,0.81524 3.63073,2.29972 4.68321,3.29885 1.05247,0.99914 13.26135,10.23543 27.13083,20.52512 13.86948,10.28967 25.54146,19.04467 25.93773,19.45554 0.39627,0.41089 3.31426,2.66521 6.48443,5.00959 8.11736,6.00291 9.19708,7.21226 11.62301,13.01832 1.96838,4.71098 1.92034,5.66697 -0.56372,11.21812 -3.76938,8.42345 -7.65614,11.4241 -15.72789,12.14222 -5.00192,0.44502 -7.83476,-0.0818 -10.46174,-1.94566 z"
       id="path3"
       transform="translate(78.936601,-329.50941)" /><path
       style="fill:#f16a26;fill-opacity:1;stroke-width:4.54198"
       d="m 590.08334,1016.3802 c -15.56645,-0.8598 -21.00234,-1.5571 -38.1861,-4.898 -9.35842,-1.8195 -39.53988,-12.51769 -51.87546,-18.38796 -25.60532,-12.18507 -50.17097,-29.48226 -69.90951,-49.22475 -39.50252,-39.51044 -62.68226,-83.72559 -72.91217,-139.07939 -2.7122,-14.67564 -2.7122,-68.90149 0,-83.57713 8.38882,-45.3917 26.76779,-85.93754 53.56094,-118.16076 16.98877,-20.43183 24.6605,-27.92578 42.66485,-41.67621 72.62863,-55.46853 166.29681,-68.6291 249.05428,-34.99264 44.34278,18.02295 80.01458,45.28971 108.78547,83.15328 23.12542,30.43389 38.66676,64.34048 46.89455,102.30993 6.27115,28.93995 6.27115,73.36998 0,102.30993 -9.50626,43.86932 -31.59777,87.57187 -59.36572,117.44028 -3.31564,3.56644 -7.21368,7.80707 -8.66231,9.42364 -13.6043,15.18135 -46.89133,39.34113 -69.00785,50.08603 -42.93766,20.86045 -80.34076,28.07435 -131.04097,25.27375 z m 57.94222,-39.49551 c 11.19476,-2.14191 27.579,-6.54118 35.7218,-9.59152 6.28214,-2.35333 32.29104,-14.98171 38.18611,-18.54093 11.74172,-7.0892 30.38233,-22.24158 41.87188,-34.03636 10.78201,-11.06843 16.55775,-18.31533 29.70671,-37.27335 12.90504,-18.60637 25.58489,-53.42862 30.0822,-82.61377 5.06413,-32.86355 1.83752,-69.01347 -9.0144,-100.9945 -2.82373,-8.32169 -6.79882,-18.69678 -8.83352,-23.05576 -20.12663,-43.11771 -57.45554,-81.20553 -100.17598,-102.2126 -34.19547,-16.81506 -57.51967,-22.18099 -96.75421,-22.25914 -25.18852,-0.0502 -31.87135,0.67576 -54.03694,5.86983 -50.44878,11.82168 -100.73815,48.30652 -130.07962,94.37254 -24.31847,38.17992 -37.29329,90.78623 -32.89783,133.38398 3.22504,31.25483 9.0898,52.74956 21.31288,78.1131 7.52669,15.61827 10.78705,20.91016 22.4613,36.45686 24.92245,33.18946 66.94915,63.4136 104.07293,74.84563 18.06145,5.56191 31.37322,8.40767 46.11152,9.8576 15.58331,1.53307 48.54128,0.30421 62.26517,-2.32161 z"
       id="path4"
       transform="translate(78.936601,-329.50941)" /></g></svg>
