<?xml version="1.0" encoding="UTF-8" standalone="no"?>
<!-- Created with Inkscape (http://www.inkscape.org/) -->

<svg
   version="1.1"
   id="svg1"
   width="380.39603"
   height="542.42596"
   viewBox="0 0 380.39603 542.42596"
   sodipodi:docname="orange_placeholder.svg"
   inkscape:version="1.3.2 (091e20ef0f, 2023-11-25)"
   xmlns:inkscape="http://www.inkscape.org/namespaces/inkscape"
   xmlns:sodipodi="http://sodipodi.sourceforge.net/DTD/sodipodi-0.dtd"
   xmlns="http://www.w3.org/2000/svg"
   xmlns:svg="http://www.w3.org/2000/svg">
  <defs
     id="defs1" />
  <sodipodi:namedview
     id="namedview1"
     pagecolor="#ffffff"
     bordercolor="#000000"
     borderopacity="0.25"
     inkscape:showpageshadow="2"
     inkscape:pageopacity="0.0"
     inkscape:pagecheckerboard="0"
     inkscape:deskcolor="#d1d1d1"
     inkscape:zoom="0.69396977"
     inkscape:cx="193.81248"
     inkscape:cy="136.89357"
     inkscape:window-width="1920"
     inkscape:window-height="964"
     inkscape:window-x="0"
     inkscape:window-y="0"
     inkscape:window-maximized="1"
     inkscape:current-layer="g1" />
  <g
     inkscape:groupmode="layer"
     inkscape:label="Image"
     id="g1"
     transform="translate(-82.867117,-1.7484993)">
    <path
       style="fill:#f16a26;fill-opacity:1;stroke-width:2.27099"
       d="m 269.90555,543.85796 c -2.22538,-0.63851 -9.08727,-8.2799 -9.08727,-10.11957 0,-0.51381 -0.33225,-0.9342 -0.73833,-0.9342 -0.40607,0 -1.06578,-0.86127 -1.466,-1.91393 -0.40022,-1.05266 -1.68908,-3.33847 -2.86413,-5.07957 -1.17506,-1.7411 -2.13647,-3.4736 -2.13647,-3.85001 0,-0.3764 -0.32422,-0.68437 -0.72049,-0.68437 -0.39627,0 -0.72049,-0.46318 -0.72049,-1.02927 0,-0.56611 -0.40528,-1.47141 -0.90062,-2.01178 -1.147,-1.2513 -2.46984,-3.31124 -3.59928,-5.60486 -0.48785,-0.99068 -1.21499,-2.19525 -1.61589,-2.67685 -0.40089,-0.48158 -1.0945,-1.31703 -1.54135,-1.85657 -0.44685,-0.53952 -1.03609,-1.68555 -1.30941,-2.54672 -0.27333,-0.86118 -0.79933,-1.56577 -1.1689,-1.56577 -0.36956,0 -0.67194,-0.49651 -0.67194,-1.10335 0,-0.60685 -0.46652,-1.28237 -1.03671,-1.50117 -0.57019,-0.21881 -1.2444,-1.34341 -1.49823,-2.49912 -0.25384,-1.1557 -0.73813,-2.10128 -1.07622,-2.10128 -0.33807,0 -0.84142,-0.71438 -1.11854,-1.58751 -0.27712,-0.87313 -0.86636,-1.99665 -1.30942,-2.49672 -1.63335,-1.84352 -2.29317,-2.87865 -4.40802,-6.91537 -1.18881,-2.26914 -2.40464,-4.12684 -2.70185,-4.12822 -0.2972,-10e-4 -0.54037,-0.49903 -0.54037,-1.10587 0,-0.60685 -0.48633,-1.28998 -1.08073,-1.51807 -0.59441,-0.22811 -1.08074,-0.7927 -1.08074,-1.25468 0,-0.46198 -1.13478,-2.56303 -2.52173,-4.66901 -1.38695,-2.10597 -2.52172,-4.12497 -2.52172,-4.48665 0,-0.36168 -0.32422,-0.6576 -0.72049,-0.6576 -0.39627,0 -0.7205,-0.46318 -0.7205,-1.02928 0,-0.5661 -0.40527,-1.4714 -0.90061,-2.01178 -1.147,-1.25129 -2.46984,-3.31124 -3.59929,-5.60485 -0.48784,-0.99068 -1.21498,-2.1493 -1.61588,-2.5747 -0.40089,-0.42541 -1.37001,-1.96546 -2.1536,-3.42234 -0.78359,-1.45688 -1.6752,-2.64887 -1.98135,-2.64887 -0.30616,0 -0.55665,-0.49651 -0.55665,-1.10335 0,-0.60685 -0.46652,-1.28238 -1.03671,-1.50118 -0.57019,-0.2188 -1.2444,-1.3434 -1.49824,-2.49911 -0.25383,-1.15571 -0.72826,-2.10129 -1.05428,-2.10129 -0.32602,0 -0.93183,-0.97266 -1.34626,-2.16148 -0.41442,-1.18881 -1.09458,-2.16147 -1.51147,-2.16147 -0.41688,0 -0.75797,-0.41267 -0.75797,-0.91705 0,-0.50438 -1.13477,-2.64011 -2.52172,-4.74609 -1.38695,-2.10597 -2.52173,-4.12496 -2.52173,-4.48664 0,-0.36169 -0.28641,-0.65761 -0.63646,-0.65761 -0.35005,0 -0.8311,-0.56739 -1.06899,-1.26086 -0.23789,-0.69348 -1.73999,-3.20619 -3.33799,-5.58382 -1.598,-2.37762 -3.1001,-4.89034 -3.33799,-5.58382 -0.2379,-0.69347 -0.6838,-1.26086 -0.99089,-1.26086 -0.3071,0 -0.76179,-0.81055 -1.01043,-1.80123 -0.24865,-0.99068 -0.77013,-1.80123 -1.15885,-1.80123 -0.38872,0 -0.70677,-0.49651 -0.70677,-1.10335 0,-0.60685 -0.45707,-1.27875 -1.01571,-1.49312 -0.55865,-0.21437 -1.23279,-1.25467 -1.49811,-2.31177 -0.26532,-1.0571 -0.70947,-2.08736 -0.98699,-2.28946 -0.81048,-0.59022 -6.58608,-10.11048 -6.58608,-10.85622 0,-0.37339 -0.28908,-0.67888 -0.64239,-0.67888 -0.35331,0 -0.84582,-0.81056 -1.09446,-1.80124 -0.24865,-0.99067 -0.77013,-1.80123 -1.15885,-1.80123 -0.38872,0 -0.70676,-0.4965 -0.70676,-1.10334 0,-0.60685 -0.48634,-1.28998 -1.08074,-1.51807 -0.59441,-0.22811 -1.08074,-0.7927 -1.08074,-1.25468 0,-0.46198 -1.13478,-2.56303 -2.52173,-4.66901 -1.38694,-2.10597 -2.52172,-4.12497 -2.52172,-4.48665 0,-0.36168 -0.32422,-0.6576 -0.72049,-0.6576 -0.39627,0 -0.72049,-0.29592 -0.72049,-0.65761 0,-0.36168 -1.13478,-2.38067 -2.52173,-4.48664 -1.38695,-2.10598 -2.52172,-4.20703 -2.52172,-4.66901 0,-0.46198 -0.48633,-1.02658 -1.08074,-1.25468 -0.59441,-0.2281 -1.08074,-0.91122 -1.08074,-1.51807 0,-0.60684 -0.32422,-1.10335 -0.72049,-1.10335 -0.39627,0 -0.72049,-0.46318 -0.72049,-1.02927 0,-0.56611 -0.40528,-1.47026 -0.90062,-2.00922 -0.85059,-0.92551 -1.95148,-2.68085 -3.74272,-5.96767 -1.01425,-1.86108 -3.49557,-5.65954 -4.0006,-6.12418 -0.21535,-0.19814 -0.78787,-1.1708 -1.27227,-2.16148 -1.11511,-2.2806 -2.43927,-4.34618 -3.59303,-5.60486 -0.49534,-0.54037 -0.90061,-1.44567 -0.90061,-2.01178 0,-0.56609 -0.32423,-1.02927 -0.7205,-1.02927 -0.39627,0 -0.72049,-0.49651 -0.72049,-1.10335 0,-0.60685 -0.48633,-1.28997 -1.08074,-1.51807 -0.5944,-0.2281 -1.08074,-0.7927 -1.08074,-1.25468 0,-0.46198 -1.13477,-2.56303 -2.52172,-4.66901 -1.38695,-2.10597 -2.52172,-4.12496 -2.52172,-4.48664 0,-0.36169 -0.32422,-0.65761 -0.7205,-0.65761 -0.39627,0 -0.72049,-0.33735 -0.72049,-0.74966 0,-0.65371 -2.57046,-4.72905 -3.61713,-5.73477 -0.2062,-0.19813 -0.77123,-1.1708 -1.25563,-2.16148 -0.94769,-1.93819 -1.38562,-2.67726 -5.00977,-8.4547 -1.30121,-2.07432 -2.36584,-4.10071 -2.36584,-4.50308 0,-0.40237 -0.32422,-0.73157 -0.72049,-0.73157 -0.39627,0 -0.7205,-0.33735 -0.7205,-0.74967 0,-0.73752 -2.78097,-5.02379 -3.72546,-5.74199 -0.26578,-0.2021 -0.70621,-1.25582 -0.97872,-2.3416 -0.27251,-1.08577 -0.78455,-1.97413 -1.13786,-1.97413 -0.35331,0 -0.64239,-0.49651 -0.64239,-1.10335 0,-0.60685 -0.46652,-1.28237 -1.03671,-1.50117 -0.57019,-0.21881 -1.2444,-1.34341 -1.49823,-2.49912 -0.25384,-1.1557 -0.73422,-2.10129 -1.06752,-2.10129 -0.3333,0 -0.81963,-0.97266 -1.08074,-2.16147 -0.26111,-1.18882 -0.74744,-2.16148 -1.08074,-2.16148 -0.3333,0 -0.81963,-0.97267 -1.08074,-2.16148 -0.2611,-1.18881 -0.73805,-2.16148 -1.05987,-2.16148 -0.321831,0 -0.808108,-0.88836 -1.08062,-1.97413 -0.272513,-1.08578 -0.712938,-2.1395 -0.978723,-2.3416 -0.265785,-0.20211 -1.424488,-3.12335 -2.574895,-6.49165 -1.150407,-3.36831 -2.32958,-6.44841 -2.620385,-6.84468 -0.290804,-0.39627 -0.756002,-2.09844 -1.033773,-3.78259 -0.277771,-1.68415 -0.770338,-3.06209 -1.094592,-3.06209 -0.324254,0 -0.812462,-1.62075 -1.084907,-3.60166 -0.272446,-1.98091 -0.751309,-3.75984 -1.064142,-3.95319 -0.312832,-0.19333 -0.791481,-2.13392 -1.063664,-4.3124 -0.272184,-2.17848 -0.757879,-4.12341 -1.079323,-4.32208 -0.321444,-0.19866 -0.817469,-2.8786 -1.102277,-5.95542 -0.284807,-3.07682 -0.809325,-5.95124 -1.165593,-6.3876 -1.699182,-2.0812 -1.85906,-51.85954 -0.174935,-54.46641 0.333507,-0.51624 0.989931,-3.53239 1.458721,-6.70255 0.935421,-6.32573 2.491367,-13.28215 3.223064,-14.40985 0.257114,-0.39627 0.705124,-2.30822 0.995578,-4.24878 0.290454,-1.94056 0.968469,-4.37223 1.506702,-5.4037 0.538232,-1.03147 0.980602,-2.28508 0.983043,-2.7858 0.0024,-0.50071 0.320284,-1.47337 0.706318,-2.16147 0.386034,-0.6881 1.541041,-3.76574 2.566683,-6.83921 1.025641,-3.07346 2.328906,-6.47779 2.896143,-7.56517 0.567238,-1.08738 1.033339,-2.38233 1.03578,-2.87767 0.0024,-0.49533 0.3029,-0.90061 0.667687,-0.90061 0.36478,0 0.87688,-0.97267 1.13798,-2.16148 0.26111,-1.18881 0.74744,-2.16148 1.08074,-2.16148 0.3333,0 0.81963,-0.97266 1.08074,-2.16147 0.26111,-1.18882 0.73539,-2.16148 1.05395,-2.16148 0.31857,0 0.75916,-0.56739 0.97908,-1.26086 0.41864,-1.32008 2.71867,-5.32383 3.41467,-5.944066 0.22234,-0.198136 1.65708,-2.467687 3.18832,-5.043448 1.53123,-2.57576 4.18625,-6.551099 5.90005,-8.83408 1.7138,-2.282982 3.116,-4.471478 3.116,-4.863325 0,-0.391847 0.33117,-0.712444 0.73594,-0.712444 0.40476,0 1.13426,-0.875672 1.6211,-1.945942 0.91967,-2.021784 2.6602,-3.937818 14.36503,-15.813509 9.72011,-9.862009 15.58342,-15.249069 17.13217,-15.740624 0.72422,-0.229859 1.49866,-0.891916 1.72096,-1.471238 0.22231,-0.579321 0.73497,-1.053311 1.13926,-1.053311 0.40428,0 2.60295,-1.402198 4.88593,-3.115996 2.28298,-1.713798 6.25832,-4.368822 8.83408,-5.900054 2.57576,-1.531233 4.84531,-2.965974 5.04345,-3.188314 0.62023,-0.696006 4.62399,-2.996035 5.94406,-3.414673 0.69347,-0.219924 1.26086,-0.660508 1.26086,-0.979075 0,-0.318568 0.97267,-0.792847 2.16148,-1.053954 1.18881,-0.261107 2.16148,-0.74744 2.16148,-1.080739 0,-0.333299 0.97266,-0.819631 2.16148,-1.080739 1.18881,-0.261107 2.16147,-0.7732 2.16147,-1.137985 0,-0.364785 0.40528,-0.674247 0.90062,-0.687693 0.49534,-0.01345 2.1975,-0.650888 3.78258,-1.416538 1.58509,-0.765649 3.44936,-1.403091 4.14284,-1.416538 0.69347,-0.01344 1.26086,-0.297075 1.26086,-0.630287 0,-0.333213 1.77769,-1.003671 3.95042,-1.489907 2.17273,-0.486236 4.1372,-1.186272 4.36547,-1.555636 0.22828,-0.369365 0.96332,-0.673569 1.6334,-0.67601 0.67009,-0.0024 2.06228,-0.444811 3.09375,-0.983043 1.03147,-0.5382327 3.46313,-1.2162478 5.40369,-1.5067021 1.94056,-0.2904536 3.85251,-0.7384637 4.24878,-0.995578 1.54531,-1.0026532 9.96271,-2.6790308 25.93773,-5.1656612 8.21601,-1.2788838 45.12341,-0.8556143 48.63324,0.5577463 0.59441,0.2393596 3.67451,0.8406487 6.84468,1.3361979 6.47559,1.0122421 13.32394,2.5671395 14.40985,3.271717 0.39627,0.2571143 2.30822,0.7051244 4.24878,0.995578 1.94056,0.2904543 4.37222,0.9684694 5.40369,1.5067021 1.03148,0.538232 2.42366,0.980601 3.09375,0.983043 0.67009,0.0024 1.39859,0.296082 1.61889,0.652536 0.2203,0.356453 2.10371,1.05499 4.18535,1.552303 2.08164,0.497314 4.27114,1.166963 4.86555,1.488109 2.25857,1.220265 7.87837,3.516415 8.60638,3.516415 0.41801,0 0.76002,0.298461 0.76002,0.663246 0,0.364785 0.97266,0.876878 2.16148,1.137985 1.18881,0.261108 2.16147,0.74744 2.16147,1.080739 0,0.333299 0.97267,0.819632 2.16148,1.080739 1.18881,0.261107 2.16148,0.735386 2.16148,1.053954 0,0.318567 0.56739,0.759151 1.26086,0.979075 1.32007,0.418638 5.32383,2.718667 5.94406,3.414673 0.19814,0.22234 2.46769,1.657081 5.04345,3.188314 2.57576,1.531232 6.5511,4.186256 8.83408,5.900054 2.28298,1.713798 4.48165,3.115996 4.88593,3.115996 0.40429,0 0.91695,0.47399 1.13926,1.053311 0.2223,0.579322 0.99674,1.241379 1.72096,1.471238 1.54875,0.491555 7.41205,5.878615 17.13218,15.740624 11.88137,12.054821 13.7142,14.066286 14.19372,15.577108 0.25518,0.804019 0.77652,1.46185 1.15852,1.46185 0.38201,0 0.9117,0.567388 1.17709,1.260862 0.2654,0.693474 1.81953,3.044081 3.45363,5.223571 1.6341,2.179489 4.22392,6.070149 5.75515,8.645909 1.53124,2.575761 2.96597,4.845312 3.18832,5.043448 0.696,0.620236 2.99603,4.623986 3.41467,5.944066 0.21992,0.69347 0.66051,1.26086 0.97908,1.26086 0.31856,0 0.79284,0.97266 1.05395,2.16148 0.26111,1.18881 0.74744,2.16147 1.08074,2.16147 0.3333,0 0.81963,0.97267 1.08074,2.16148 0.2611,1.18881 0.7732,2.16148 1.13799,2.16148 0.36477,0 0.66324,0.34201 0.66324,0.76002 0,0.72801 2.29615,6.34781 3.51641,8.60638 0.32115,0.59441 0.9908,2.7839 1.48811,4.86554 0.49732,2.08165 1.19585,3.96506 1.55231,4.18536 0.35645,0.2203 0.65009,0.9488 0.65253,1.61889 0.002,0.67008 0.44481,2.06227 0.98304,3.09374 0.53824,1.03147 1.21625,3.46314 1.50671,5.4037 0.29045,1.94056 0.73846,3.85251 0.99558,4.24878 0.73169,1.1277 2.28764,8.08412 3.22306,14.40985 0.46879,3.17016 1.12522,6.18631 1.45872,6.70255 1.58118,2.44752 1.57236,50.7694 -0.01,54.17041 -0.27875,0.59917 -0.91313,3.52105 -1.40974,6.49308 -1.35665,8.11913 -2.72528,14.23057 -3.31934,14.82213 -0.29157,0.29034 -0.73861,2.09957 -0.99344,4.02052 -0.25482,1.92094 -0.71726,3.49262 -1.02765,3.49262 -0.31039,0 -0.79161,1.37794 -1.06939,3.06209 -0.27777,1.68415 -0.75035,3.38632 -1.05016,3.78259 -0.29983,0.39627 -0.93958,2.01738 -1.42166,3.60246 -0.48209,1.58508 -1.3349,3.90364 -1.89513,5.15234 -0.56023,1.2487 -1.0186,2.78875 -1.0186,3.42234 0,0.63358 -0.29847,1.15197 -0.66325,1.15197 -0.36478,0 -0.87688,0.97266 -1.13799,2.16148 -0.2611,1.18881 -0.74743,2.16147 -1.08073,2.16147 -0.3333,0 -0.81964,0.97267 -1.08074,2.16148 -0.26111,1.18881 -0.74744,2.16148 -1.08074,2.16148 -0.3333,0 -0.81963,0.97266 -1.08074,2.16148 -0.26111,1.18881 -0.74744,2.16147 -1.08074,2.16147 -0.3333,0 -0.81963,0.97267 -1.08074,2.16148 -0.2611,1.18881 -0.69891,2.16148 -0.97291,2.16148 -0.27399,0 -1.30195,1.54005 -2.28435,3.42234 -0.9824,1.88228 -1.9681,3.58445 -2.19044,3.78258 -0.84202,0.75037 -5.71993,9.22794 -5.71993,9.94098 0,0.41048 -0.26865,0.8544 -0.597,0.9865 -0.63034,0.25357 -5.27744,8.00001 -6.08716,10.14693 -0.26155,0.69347 -0.77479,1.26086 -1.14054,1.26086 -0.36574,0 -0.88796,0.88836 -1.16048,1.97414 -0.27251,1.08577 -0.73274,2.13949 -1.02273,2.3416 -0.68024,0.47409 -5.84293,9.04431 -5.84293,9.69945 0,0.27368 -0.40527,0.94951 -0.90061,1.50186 -1.69845,1.89394 -2.3446,2.90452 -4.14283,6.4795 -0.99068,1.96951 -2.20651,3.84021 -2.70185,4.1571 -0.49534,0.3169 -0.90062,1.0464 -0.90062,1.62111 0,0.57472 -0.25313,1.04494 -0.56253,1.04494 -0.30939,0 -0.95198,0.89161 -1.42797,1.98135 -0.47599,1.08975 -1.49415,2.95402 -2.26257,4.14284 -0.76843,1.18881 -2.2863,3.86364 -3.37304,5.94406 -1.08676,2.08042 -2.21197,3.78258 -2.50049,3.78258 -0.28851,0 -0.728,0.81056 -0.97665,1.80124 -0.24864,0.99067 -0.74437,1.80123 -1.1016,1.80123 -0.35723,0 -0.8572,0.94558 -1.11104,2.10128 -0.25383,1.15571 -0.92804,2.28031 -1.49823,2.49912 -0.57019,0.2188 -1.03671,0.89432 -1.03671,1.50117 0,0.60685 -0.25314,1.10335 -0.56253,1.10335 -0.3094,0 -0.94607,0.89161 -1.41483,1.98136 -0.95606,2.22258 -2.26371,4.32013 -3.60646,5.78497 -0.49534,0.54038 -0.90061,1.44568 -0.90061,2.01178 0,0.5661 -0.25314,1.02928 -0.56253,1.02928 -0.3094,0 -0.94607,0.89161 -1.41484,1.98135 -0.95605,2.22259 -2.2637,4.32013 -3.60645,5.78498 -0.49534,0.54038 -0.90061,1.44568 -0.90061,2.01178 0,0.5661 -0.25314,1.02928 -0.56254,1.02928 -0.30939,0 -0.95059,0.89161 -1.42489,1.98135 -0.4743,1.08975 -1.69399,3.27824 -2.71042,4.86332 -1.01645,1.58509 -2.03416,3.44936 -2.26161,4.14284 -0.22744,0.69347 -0.69994,1.26086 -1.04999,1.26086 -0.35005,0 -0.63646,0.46317 -0.63646,1.02927 0,0.56611 -0.40906,1.45772 -0.90902,1.98136 -0.49997,0.52364 -1.39157,1.89964 -1.98136,3.05777 -2.08118,4.0867 -2.50022,4.73899 -3.04441,4.73899 -0.30231,0 -0.54965,0.46317 -0.54965,1.02927 0,0.5661 -0.40906,1.45771 -0.90901,1.98135 -0.49997,0.52365 -1.30817,1.76264 -1.79601,2.75332 -0.96798,1.9657 -2.48901,4.47353 -3.05892,5.04344 -0.56991,0.56991 -2.09094,3.07774 -3.05891,5.04345 -0.48785,0.99068 -1.29605,2.22966 -1.79601,2.75331 -0.49996,0.52364 -0.90902,1.41525 -0.90902,1.98136 0,0.56609 -0.28641,1.02927 -0.63646,1.02927 -0.35005,0 -0.82255,0.56739 -1.04999,1.26086 -0.22745,0.69348 -1.23447,2.55775 -2.23785,4.14283 -1.95049,3.08133 -3.28062,5.84426 -3.28062,6.8145 0,0.32808 -0.48633,0.78313 -1.08074,1.01123 -0.59441,0.22809 -1.08074,0.91122 -1.08074,1.51807 0,0.60684 -0.24734,1.10334 -0.54964,1.10334 -0.5442,0 -0.96323,0.65229 -3.04442,4.73899 -0.58978,1.15813 -1.48139,2.53413 -1.98135,3.05777 -0.49996,0.52364 -0.90902,1.41525 -0.90902,1.98136 0,0.5661 -0.24734,1.02927 -0.54964,1.02927 -0.5442,0 -0.96324,0.65229 -3.04442,4.73899 -0.58978,1.15813 -1.48139,2.53412 -1.98136,3.05777 -0.49995,0.52364 -0.90901,1.41525 -0.90901,1.98135 0,0.5661 -0.24734,1.02928 -0.54965,1.02928 -0.54565,0 -0.989,0.69155 -3.03815,4.73899 -0.58634,1.15812 -1.25459,2.2678 -1.485,2.46593 -0.2304,0.19814 -1.63769,2.46769 -3.12731,5.04345 -1.48961,2.57576 -3.01221,5.16953 -3.38355,5.76394 -0.37135,0.59441 -1.07432,1.89129 -1.56215,2.88197 -0.48785,0.99068 -1.29605,2.22967 -1.79601,2.75331 -0.49996,0.52364 -0.90902,1.41525 -0.90902,1.98136 0,0.56609 -0.24734,1.02927 -0.54964,1.02927 -0.54566,0 -0.98901,0.69155 -3.03816,4.73899 -0.58634,1.15813 -1.25458,2.2678 -1.48499,2.46594 -0.83319,0.71648 -5.7346,9.21313 -5.7346,9.94098 0,0.41048 -0.26026,0.85439 -0.57836,0.98649 -0.79428,0.32982 -5.90607,8.88191 -5.90607,9.88093 0,0.4435 -0.29024,0.80637 -0.64498,0.80637 -0.35474,0 -1.51286,1.65978 -2.57359,3.6884 -2.07829,3.97466 -2.88691,5.11247 -4.96737,6.98957 -0.7377,0.66559 -1.82374,1.67093 -2.41345,2.23408 -1.10321,1.05357 -10.7848,1.79011 -13.45599,1.02369 z m 18.17136,-256.1143 c 0.13209,-0.34507 1.30367,-0.62741 2.6035,-0.62741 6.0771,0 15.90569,-2.98624 25.25554,-7.67345 5.66472,-2.83981 9.19063,-4.75939 9.72665,-5.29541 0.19814,-0.19814 1.98136,-1.47927 3.96271,-2.84696 4.00641,-2.76556 5.81613,-4.30451 11.9853,-10.19209 2.32418,-2.21809 4.23951,-4.32553 4.25629,-4.6832 0.0168,-0.35767 0.98945,-1.44565 2.16148,-2.41774 1.17203,-0.97209 2.13097,-2.18792 2.13097,-2.70185 0,-0.51393 0.25904,-0.93441 0.57565,-0.93441 0.31661,0 1.37033,-1.28817 2.3416,-2.86259 0.97127,-1.57443 1.98336,-2.87132 2.24907,-2.88197 0.26571,-0.0107 0.69676,-0.99205 0.95786,-2.18086 0.26111,-1.18881 0.76618,-2.16148 1.12239,-2.16148 0.62713,0 5.72229,-10.20523 5.72229,-11.46133 0,-0.34227 0.48434,-1.55099 1.0763,-2.68603 0.59196,-1.13505 1.0783,-2.56626 1.08074,-3.18048 0.002,-0.61422 0.29122,-1.42478 0.64174,-1.80123 0.35051,-0.37646 1.36714,-4.25091 2.25917,-8.60989 2.30718,-11.27413 2.33671,-29.8616 0.0647,-40.70782 -0.8716,-4.16085 -1.8532,-8.06215 -2.18133,-8.66956 -0.32812,-0.60742 -0.82487,-2.14375 -1.10389,-3.41408 -0.27901,-1.27033 -0.80656,-2.49465 -1.17235,-2.72072 -0.36578,-0.22607 -0.66506,-0.84933 -0.66506,-1.38502 0,-1.21983 -4.88038,-11.71392 -5.59661,-12.03418 -0.29017,-0.12974 -1.31332,-1.74293 -2.27367,-3.58486 -1.67903,-3.22031 -2.50211,-4.32012 -8.50651,-11.36655 -4.39697,-5.16003 -6.7054,-7.34329 -15.93862,-15.07434 -1.32824,-1.11214 -3.92201,-2.80782 -5.76394,-3.76818 -1.84193,-0.96035 -3.45512,-1.98351 -3.58486,-2.27367 -0.32026,-0.71623 -10.81436,-5.59661 -12.03418,-5.59661 -0.53569,0 -1.15896,-0.29928 -1.38502,-0.66506 -0.22607,-0.36579 -1.45039,-0.89335 -2.72072,-1.17236 -1.27033,-0.279009 -2.80667,-0.77576 -3.41408,-1.103886 -0.60741,-0.328127 -4.50872,-1.309726 -8.66956,-2.181327 -10.80664,-2.263737 -29.54094,-2.263737 -40.34758,0 -4.16084,0.871601 -8.06214,1.8532 -8.66956,2.181327 -0.60741,0.328126 -2.14375,0.824877 -3.41408,1.103886 -1.27033,0.27901 -2.49465,0.80657 -2.72071,1.17236 -0.22607,0.36578 -0.84934,0.66506 -1.38503,0.66506 -1.21982,0 -11.71392,4.88038 -12.03418,5.59661 -0.12973,0.29016 -1.74292,1.31332 -3.58486,2.27367 -1.84193,0.96036 -4.4357,2.65604 -5.76394,3.76818 -9.23322,7.73105 -11.54165,9.91431 -15.93862,15.07434 -6.0044,7.04643 -6.82748,8.14624 -8.5065,11.36655 -0.96036,1.84193 -1.98351,3.45512 -2.27368,3.58486 -0.68106,0.30453 -5.59661,10.78502 -5.59661,11.93259 0,0.47984 -0.28256,1.18044 -0.62792,1.5569 -1.11345,1.21372 -3.73055,10.64254 -4.18965,15.09431 -0.24519,2.37763 -0.76955,4.53449 -1.16525,4.79304 -0.9706,0.63419 -0.9706,29.40682 0,30.04102 0.3957,0.25854 0.92006,2.4154 1.16525,4.79303 0.4591,4.45177 3.0762,13.8806 4.18965,15.09432 0.34536,0.37645 0.62792,1.09884 0.62792,1.6053 0,1.21131 4.8526,11.55871 5.56899,11.87497 0.30536,0.13481 1.36213,1.79093 2.34838,3.68027 0.98625,1.88933 2.52631,4.22578 3.42234,5.19212 0.89603,0.96634 1.62915,1.97936 1.62915,2.25117 0,0.2718 0.96791,1.50179 2.15091,2.73329 1.183,1.2315 3.88325,4.10337 6.00055,6.38193 2.11731,2.27855 4.14845,4.15656 4.51365,4.17334 0.3652,0.0168 1.45935,0.98944 2.43144,2.16148 0.97209,1.17203 2.18792,2.13096 2.70185,2.13096 0.51392,0 0.93441,0.25905 0.93441,0.57565 0,0.31662 1.28817,1.37034 2.86259,2.3416 1.57443,0.97128 2.87131,1.98336 2.88197,2.24907 0.0107,0.26572 0.99204,0.69676 2.18086,0.95787 1.18881,0.2611 2.16147,0.75311 2.16147,1.09334 0,0.73515 8.94341,5.08417 14.04961,6.83208 1.98135,0.67823 4.2509,1.52431 5.04344,1.88016 1.96498,0.88226 8.66577,2.08254 11.62622,2.08254 1.33287,0 2.42339,0.31059 2.42339,0.69019 0,1.42181 29.59591,1.36016 30.1406,-0.0628 z"
       id="path1" />
  </g>
</svg>
