<?xml version="1.0" encoding="UTF-8" standalone="no"?>
<!-- Created with Inkscape (http://www.inkscape.org/) -->

<svg
   version="1.1"
   id="svg1"
   width="508.65268"
   height="452.78085"
   viewBox="0 0 508.65268 452.78085"
   sodipodi:docname="orange_heart.svg"
   inkscape:version="1.3.2 (091e20ef0f, 2023-11-25)"
   xml:space="preserve"
   xmlns:inkscape="http://www.inkscape.org/namespaces/inkscape"
   xmlns:sodipodi="http://sodipodi.sourceforge.net/DTD/sodipodi-0.dtd"
   xmlns="http://www.w3.org/2000/svg"
   xmlns:svg="http://www.w3.org/2000/svg"><defs
     id="defs1" /><sodipodi:namedview
     id="namedview1"
     pagecolor="#ffffff"
     bordercolor="#000000"
     borderopacity="0.25"
     inkscape:showpageshadow="2"
     inkscape:pageopacity="0.0"
     inkscape:pagecheckerboard="0"
     inkscape:deskcolor="#d1d1d1"
     inkscape:zoom="0.69396977"
     inkscape:cx="198.13543"
     inkscape:cy="468.32011"
     inkscape:window-width="1920"
     inkscape:window-height="964"
     inkscape:window-x="0"
     inkscape:window-y="0"
     inkscape:window-maximized="1"
     inkscape:current-layer="g1" /><g
     inkscape:groupmode="layer"
     inkscape:label="Image"
     id="g1"
     transform="translate(-78.936601,329.50941)"><path
       style="fill:#f16a26;fill-opacity:1;stroke-width:4.54198"
       d="m 324.30245,121.4424 c -4.16059,-1.50821 -12.42252,-7.61807 -25.04831,-18.52376 -2.1129,-1.82504 -5.35512,-4.558156 -7.20493,-6.073576 -3.91282,-3.2055 -23.19514,-19.93931 -24.25757,-21.05148 -0.39627,-0.41483 -4.61115,-3.98198 -9.3664,-7.92702 -4.75525,-3.94503 -8.97013,-7.51365 -9.3664,-7.93027 -0.63542,-0.66806 -15.87579,-13.77789 -28.09921,-24.17107 -28.58268,-24.30292 -69.16013,-62.900591 -84.38024,-80.263336 -30.67494,-34.993239 -48.12034,-67.059998 -55.48344,-101.985278 -2.8875,-13.69626 -2.87706,-48.40533 0.019,-63.30632 10.43035,-53.66606 46.24765,-96.78945 93.73312,-112.85297 27.51839,-9.309 63.09055,-9.13949 89.34107,0.42573 21.9638,8.00322 45.86366,26.16595 63.95437,48.60222 l 4.64755,5.76394 4.59535,-5.76394 c 19.07021,-23.91974 42.33481,-41.17113 66.57827,-49.36973 15.43598,-5.22011 22.75009,-6.34416 41.32206,-6.35045 30.30518,-0.0103 49.62941,5.36688 74.67723,20.77962 18.14441,11.16485 39.3153,34.90478 49.79262,55.83485 6.5989,13.18232 6.94892,14.04968 10.7578,26.65822 12.68534,41.99234 8.22125,86.4225 -12.66141,126.01647 -5.65126,10.714907 -18.27259,31.204675 -20.45822,33.212371 -0.43138,0.396271 -4.62538,5.583817 -9.31998,11.52788 -9.50401,12.033492 -48.61737,51.5916994 -66.31596,67.070193 -6.30303,5.51238 -14.73279,12.98148 -18.73281,16.598 -5.89518,5.32999 -33.4287,28.99792 -51.21646,44.0259 -1.98485,1.6769 -9.12057,7.84005 -15.85718,13.6959 -6.7366,5.85583 -16.78747,14.534706 -22.33527,19.286356 -5.54779,4.75166 -11.31128,9.74374 -12.80777,11.09351 -3.18114,2.86926 -14.48288,6.96082 -18.79035,6.80264 -1.64203,-0.0603 -5.11448,-0.88136 -7.71657,-1.8246 z m 19.93316,-35.196176 c 5.19099,-4.54333 13.23279,-11.50283 17.87068,-15.46554 4.63788,-3.96271 9.14469,-7.8609 10.01513,-8.66264 0.87044,-0.80175 15.19993,-13.10087 31.8433,-27.33139 16.64338,-14.23052 31.23335,-26.8725256 32.42216,-28.0933716 1.18882,-1.220831 7.02481,-6.42092795 12.96887,-11.555763 64.76562,-55.9483884 98.23354,-100.8094294 107.50853,-144.1065094 2.2467,-10.48798 2.76169,-48.94429 0.74487,-55.62368 -0.69379,-2.29775 -2.06468,-7.74417 -3.04641,-12.10315 -2.11465,-9.38926 -14.05488,-34.63277 -19.76606,-41.78856 -12.51667,-15.68268 -30.2973,-29.34785 -46.63463,-35.84069 -14.80783,-5.88499 -23.07426,-7.35408 -41.48028,-7.37176 -24.447,-0.0235 -36.88091,3.39592 -56.4064,15.51212 -10.66652,6.61892 -29.91134,26.28386 -38.07998,38.91129 -8.07146,12.47722 -11.07221,14.73621 -19.51981,14.69472 -8.0058,-0.0393 -10.72679,-2.10321 -19.10304,-14.48976 -17.99294,-26.60747 -37.90423,-42.54649 -63.64748,-50.94993 -9.75424,-3.18411 -13.8719,-3.69554 -29.75347,-3.69554 -22.19507,0 -31.77178,2.10271 -49.64643,10.90063 -17.17492,8.45351 -28.11735,17.53215 -39.4067,32.69468 -17.17005,23.0608 -24.7293,47.73195 -24.70012,80.61386 0.0339,38.164 10.5187,64.40432 41.62988,104.186949 14.29683,18.281704 63.78097,66.1786034 96.52672,93.430555 9.11193,7.5832 34.20455,29.22767 36.18557,31.21306 0.39627,0.39713 4.61115,3.96059 9.3664,7.91877 4.75525,3.95819 9.9428,8.38809 11.52788,9.84425 1.58508,1.45614 8.39374,7.29584 15.13034,12.97709 6.73661,5.68124 12.46452,10.81588 12.7287,11.41028 1.21692,2.73808 6.03791,0.37047 14.72178,-7.22997 z"
       id="path2" /></g></svg>
